<mxfile host="app.diagrams.net" modified="2023-09-10T13:16:47.849Z" agent="Mozilla/5.0 (Macintosh; Intel Mac OS X 10_15_7) AppleWebKit/537.36 (KHTML, like Gecko) Chrome/115.0.0.0 Safari/537.36" etag="ztxn8vxKR-UrqCDvscor" version="21.7.4" type="device">
  <diagram id="C5RBs43oDa-KdzZeNtuy" name="Page-1">
    <mxGraphModel dx="954" dy="617" grid="1" gridSize="10" guides="1" tooltips="1" connect="1" arrows="1" fold="1" page="1" pageScale="1" pageWidth="827" pageHeight="1169" math="0" shadow="0">
      <root>
        <mxCell id="WIyWlLk6GJQsqaUBKTNV-0" />
        <mxCell id="WIyWlLk6GJQsqaUBKTNV-1" parent="WIyWlLk6GJQsqaUBKTNV-0" />
        <mxCell id="Rwjm1RDsLriGbpPF5Ih3-7" style="edgeStyle=orthogonalEdgeStyle;rounded=0;orthogonalLoop=1;jettySize=auto;html=1;exitX=0.5;exitY=1;exitDx=0;exitDy=0;exitPerimeter=0;entryX=0.5;entryY=0;entryDx=0;entryDy=0;" edge="1" parent="WIyWlLk6GJQsqaUBKTNV-1" source="Rwjm1RDsLriGbpPF5Ih3-0" target="Rwjm1RDsLriGbpPF5Ih3-1">
          <mxGeometry relative="1" as="geometry" />
        </mxCell>
        <mxCell id="Rwjm1RDsLriGbpPF5Ih3-0" value="Начало" style="strokeWidth=2;html=1;shape=mxgraph.flowchart.terminator;whiteSpace=wrap;" vertex="1" parent="WIyWlLk6GJQsqaUBKTNV-1">
          <mxGeometry x="260" y="50" width="100" height="40" as="geometry" />
        </mxCell>
        <mxCell id="Rwjm1RDsLriGbpPF5Ih3-8" style="edgeStyle=orthogonalEdgeStyle;rounded=0;orthogonalLoop=1;jettySize=auto;html=1;exitX=0.5;exitY=1;exitDx=0;exitDy=0;entryX=0.5;entryY=0;entryDx=0;entryDy=0;" edge="1" parent="WIyWlLk6GJQsqaUBKTNV-1" source="Rwjm1RDsLriGbpPF5Ih3-1" target="Rwjm1RDsLriGbpPF5Ih3-2">
          <mxGeometry relative="1" as="geometry" />
        </mxCell>
        <mxCell id="Rwjm1RDsLriGbpPF5Ih3-1" value="Определить координаты рисуемой вершины на текстуре прошлого кадра" style="rounded=0;whiteSpace=wrap;html=1;" vertex="1" parent="WIyWlLk6GJQsqaUBKTNV-1">
          <mxGeometry x="250" y="120" width="120" height="80" as="geometry" />
        </mxCell>
        <mxCell id="Rwjm1RDsLriGbpPF5Ih3-4" style="edgeStyle=orthogonalEdgeStyle;rounded=0;orthogonalLoop=1;jettySize=auto;html=1;exitX=1;exitY=0.5;exitDx=0;exitDy=0;entryX=0;entryY=0.5;entryDx=0;entryDy=0;" edge="1" parent="WIyWlLk6GJQsqaUBKTNV-1" source="Rwjm1RDsLriGbpPF5Ih3-2" target="Rwjm1RDsLriGbpPF5Ih3-3">
          <mxGeometry relative="1" as="geometry" />
        </mxCell>
        <mxCell id="Rwjm1RDsLriGbpPF5Ih3-5" value="Да" style="edgeLabel;html=1;align=center;verticalAlign=middle;resizable=0;points=[];" vertex="1" connectable="0" parent="Rwjm1RDsLriGbpPF5Ih3-4">
          <mxGeometry x="0.2" y="-1" relative="1" as="geometry">
            <mxPoint x="-8" y="-11" as="offset" />
          </mxGeometry>
        </mxCell>
        <mxCell id="Rwjm1RDsLriGbpPF5Ih3-9" style="edgeStyle=orthogonalEdgeStyle;rounded=0;orthogonalLoop=1;jettySize=auto;html=1;exitX=0.5;exitY=1;exitDx=0;exitDy=0;entryX=0.5;entryY=0;entryDx=0;entryDy=0;" edge="1" parent="WIyWlLk6GJQsqaUBKTNV-1" source="Rwjm1RDsLriGbpPF5Ih3-2" target="Rwjm1RDsLriGbpPF5Ih3-6">
          <mxGeometry relative="1" as="geometry" />
        </mxCell>
        <mxCell id="Rwjm1RDsLriGbpPF5Ih3-2" value="Коориданты содержатся в кеше" style="rhombus;whiteSpace=wrap;html=1;" vertex="1" parent="WIyWlLk6GJQsqaUBKTNV-1">
          <mxGeometry x="225" y="230" width="170" height="80" as="geometry" />
        </mxCell>
        <mxCell id="Rwjm1RDsLriGbpPF5Ih3-12" style="edgeStyle=orthogonalEdgeStyle;rounded=0;orthogonalLoop=1;jettySize=auto;html=1;exitX=0.5;exitY=1;exitDx=0;exitDy=0;" edge="1" parent="WIyWlLk6GJQsqaUBKTNV-1" source="Rwjm1RDsLriGbpPF5Ih3-3">
          <mxGeometry relative="1" as="geometry">
            <mxPoint x="310" y="420" as="targetPoint" />
            <Array as="points">
              <mxPoint x="500" y="420" />
            </Array>
          </mxGeometry>
        </mxCell>
        <mxCell id="Rwjm1RDsLriGbpPF5Ih3-3" value="Использовать цвет вершины из прошлого кадра" style="rounded=0;whiteSpace=wrap;html=1;" vertex="1" parent="WIyWlLk6GJQsqaUBKTNV-1">
          <mxGeometry x="440" y="240" width="120" height="60" as="geometry" />
        </mxCell>
        <mxCell id="Rwjm1RDsLriGbpPF5Ih3-11" style="edgeStyle=orthogonalEdgeStyle;rounded=0;orthogonalLoop=1;jettySize=auto;html=1;exitX=0.5;exitY=1;exitDx=0;exitDy=0;entryX=0.5;entryY=0;entryDx=0;entryDy=0;entryPerimeter=0;" edge="1" parent="WIyWlLk6GJQsqaUBKTNV-1" source="Rwjm1RDsLriGbpPF5Ih3-6" target="Rwjm1RDsLriGbpPF5Ih3-10">
          <mxGeometry relative="1" as="geometry" />
        </mxCell>
        <mxCell id="Rwjm1RDsLriGbpPF5Ih3-6" value="Считать цвет вершины заново" style="rounded=0;whiteSpace=wrap;html=1;" vertex="1" parent="WIyWlLk6GJQsqaUBKTNV-1">
          <mxGeometry x="250" y="340" width="120" height="60" as="geometry" />
        </mxCell>
        <mxCell id="Rwjm1RDsLriGbpPF5Ih3-10" value="Конец" style="strokeWidth=2;html=1;shape=mxgraph.flowchart.terminator;whiteSpace=wrap;" vertex="1" parent="WIyWlLk6GJQsqaUBKTNV-1">
          <mxGeometry x="260" y="440" width="100" height="40" as="geometry" />
        </mxCell>
      </root>
    </mxGraphModel>
  </diagram>
</mxfile>
